name C:/MyDriveSym/Projects/mobilecap/Data\Session20210825_0002\mocap\ForceDataProcessed\walkingTS1_forces.mot
datacolumns 19
datarows 17
range 0.37450000 0.38250000
endheader 
time	R_ground_force_vx	R_ground_force_vy	R_ground_force_vz	R_ground_force_px	R_ground_force_py	R_ground_force_pz	R_ground_torque_x	R_ground_torque_y	R_ground_torque_z	L_ground_force_vx	L_ground_force_vy	L_ground_force_vz	L_ground_force_px	L_ground_force_py	L_ground_force_pz	L_ground_torque_x	L_ground_torque_y	L_ground_torque_z	
          0.37450000	         11.41103600	        546.61516700	        -24.85582500	          0.25350800	          0.00600000	         -0.15390700	          0.00000000	         -2.67537700	          0.00000000	          0.00000000	          0.00000000	          0.00000000	          0.69220600	          0.00000000	         -0.24798900	          0.00000000	          0.00000000	          0.00000000	
          0.37500000	         11.54366600	        546.96540900	        -24.91023700	          0.25363700	          0.00600000	         -0.15388100	          0.00000000	         -2.67762800	          0.00000000	          0.00000000	          0.00000000	          0.00000000	          0.69220600	          0.00000000	         -0.24798900	          0.00000000	          0.00000000	          0.00000000	
          0.37550000	         11.67681600	        547.31643400	        -24.96476800	          0.25376500	          0.00600000	         -0.15385500	          0.00000000	         -2.67988200	          0.00000000	          0.00000000	          0.00000000	          0.00000000	          0.69220600	          0.00000000	         -0.24798900	          0.00000000	          0.00000000	          0.00000000	
          0.37600000	         11.81049200	        547.66822900	        -25.01941800	          0.25389300	          0.00600000	         -0.15382900	          0.00000000	         -2.68214100	          0.00000000	          0.00000000	          0.00000000	          0.00000000	          0.69220600	          0.00000000	         -0.24798900	          0.00000000	          0.00000000	          0.00000000	
          0.37650000	         11.94469900	        548.02078200	        -25.07418500	          0.25402100	          0.00600000	         -0.15380300	          0.00000000	         -2.68440400	          0.00000000	          0.00000000	          0.00000000	          0.00000000	          0.69220600	          0.00000000	         -0.24798900	          0.00000000	          0.00000000	          0.00000000	
          0.37700000	         12.07944200	        548.37408200	        -25.12906600	          0.25414900	          0.00600000	         -0.15377700	          0.00000000	         -2.68667100	          0.00000000	          0.00000000	          0.00000000	          0.00000000	          0.69220600	          0.00000000	         -0.24798900	          0.00000000	          0.00000000	          0.00000000	
          0.37750000	         12.21472800	        548.72811700	        -25.18406100	          0.25427700	          0.00600000	         -0.15375200	          0.00000000	         -2.68894300	          0.00000000	          0.00000000	          0.00000000	          0.00000000	          0.69220600	          0.00000000	         -0.24798900	          0.00000000	          0.00000000	          0.00000000	
          0.37800000	         12.35056000	        549.08287700	        -25.23916600	          0.25440400	          0.00600000	         -0.15372600	          0.00000000	         -2.69121900	          0.00000000	          0.00000000	          0.00000000	          0.00000000	          0.69220600	          0.00000000	         -0.24798900	          0.00000000	          0.00000000	          0.00000000	
          0.37850000	         12.48694500	        549.43835000	        -25.29438100	          0.25453200	          0.00600000	         -0.15370000	          0.00000000	         -2.69350000	          0.00000000	          0.00000000	          0.00000000	          0.00000000	          0.69220600	          0.00000000	         -0.24798900	          0.00000000	          0.00000000	          0.00000000	
          0.37900000	         12.62388800	        549.79452600	        -25.34970400	          0.25465900	          0.00600000	         -0.15367500	          0.00000000	         -2.69578600	          0.00000000	          0.00000000	          0.00000000	          0.00000000	          0.69220600	          0.00000000	         -0.24798900	          0.00000000	          0.00000000	          0.00000000	
          0.37950000	         12.76139300	        550.15139300	        -25.40513400	          0.25478500	          0.00600000	         -0.15364900	          0.00000000	         -2.69807600	          0.00000000	          0.00000000	          0.00000000	          0.00000000	          0.69220600	          0.00000000	         -0.24798900	          0.00000000	          0.00000000	          0.00000000	
          0.38000000	         12.89946500	        550.50894100	        -25.46066700	          0.25491200	          0.00600000	         -0.15362400	          0.00000000	         -2.70037200	          0.00000000	          0.00000000	          0.00000000	          0.00000000	          0.69220600	          0.00000000	         -0.24798900	          0.00000000	          0.00000000	          0.00000000	
          0.38050000	         13.03811100	        550.86715900	        -25.51630400	          0.25503800	          0.00600000	         -0.15359800	          0.00000000	         -2.70267200	          0.00000000	          0.00000000	          0.00000000	          0.00000000	          0.69220600	          0.00000000	         -0.24798900	          0.00000000	          0.00000000	          0.00000000	
          0.38100000	         13.17733400	        551.22603800	        -25.57204200	          0.25516500	          0.00600000	         -0.15357300	          0.00000000	         -2.70497600	          0.00000000	          0.00000000	          0.00000000	          0.00000000	          0.69220600	          0.00000000	         -0.24798900	          0.00000000	          0.00000000	          0.00000000	
          0.38150000	         13.31714000	        551.58556600	        -25.62788000	          0.25529100	          0.00600000	         -0.15354700	          0.00000000	         -2.70728600	          0.00000000	          0.00000000	          0.00000000	          0.00000000	          0.69220600	          0.00000000	         -0.24798900	          0.00000000	          0.00000000	          0.00000000	
          0.38200000	         13.45753400	        551.94573500	        -25.68381600	          0.25541700	          0.00600000	         -0.15352200	          0.00000000	         -2.70960100	          0.00000000	          0.00000000	          0.00000000	          0.00000000	          0.69220600	          0.00000000	         -0.24798900	          0.00000000	          0.00000000	          0.00000000	
          0.38250000	         13.59852000	        552.30653200	        -25.73984900	          0.25554200	          0.00600000	         -0.15349700	          0.00000000	         -2.71192000	          0.00000000	          0.00000000	          0.00000000	          0.00000000	          0.69220600	          0.00000000	         -0.24798900	          0.00000000	          0.00000000	          0.00000000	
